<?xml version="1.0" standalone="no"?>
<!DOCTYPE svg PUBLIC "-//W3C//DTD SVG 20010904//EN"
 "http://www.w3.org/TR/2001/REC-SVG-20010904/DTD/svg10.dtd">
<svg version="1.0" xmlns="http://www.w3.org/2000/svg"
 width="700.000000pt" height="700.000000pt" viewBox="0 0 700.000000 700.000000"
 preserveAspectRatio="xMidYMid meet">
<metadata>
Created by potrace 1.11, written by Peter Selinger 2001-2013
</metadata>
<g transform="translate(0.000000,700.000000) scale(0.100000,-0.100000)"
fill="#000000" stroke="none">
<path d="M3438 6978 c-76 -65 -277 -433 -379 -693 -13 -33 -24 -62 -25 -65 0
-3 -6 -18 -13 -35 -33 -79 -111 -349 -135 -466 -3 -13 -7 -35 -11 -49 -3 -14
-10 -54 -15 -90 -6 -36 -13 -76 -15 -90 -23 -129 -23 -457 0 -540 2 -8 6 -27
9 -41 8 -50 46 -177 72 -240 100 -245 245 -420 420 -507 l51 -25 0 -703 c0
-387 -4 -704 -9 -704 -4 0 -8 3 -8 8 0 12 -97 123 -289 332 -22 25 -41 49 -40
55 0 5 6 42 13 82 12 66 13 208 2 264 -22 116 -69 242 -126 340 -118 201 -320
386 -545 497 -199 98 -472 170 -710 188 -105 7 -333 7 -415 0 -128 -12 -165
-16 -190 -21 -14 -3 -38 -7 -55 -9 -72 -9 -179 -32 -270 -57 -153 -43 -180
-59 -191 -113 -9 -50 10 -80 86 -141 112 -89 293 -250 519 -461 174 -162 311
-280 431 -374 25 -19 50 -38 55 -43 46 -37 164 -117 230 -156 153 -91 342
-157 510 -179 146 -20 369 -7 466 27 25 9 33 3 106 -72 152 -157 265 -294 373
-453 l57 -83 -1 -108 -1 -108 -735 -1 c-731 0 -735 0 -776 -22 -53 -27 -90
-72 -104 -123 -7 -25 -10 -122 -8 -252 3 -242 10 -268 87 -322 36 -25 54 -30
123 -35 l82 -5 32 -115 c17 -63 44 -162 59 -220 26 -97 101 -376 192 -710 20
-74 45 -153 56 -175 25 -51 85 -107 145 -137 l47 -23 910 0 910 0 40 24 c112
66 148 118 189 271 13 52 32 122 41 155 30 113 118 440 184 685 l67 245 83 6
c69 5 89 11 123 35 77 55 83 77 83 334 0 124 -3 237 -7 252 -11 39 -55 86
-102 110 -41 22 -44 22 -771 22 -401 0 -732 4 -735 8 -3 4 -5 53 -5 110 l1
103 44 65 c42 62 158 220 169 230 3 3 35 39 71 80 35 41 99 110 141 154 l76
79 89 -19 c68 -15 127 -19 249 -18 147 1 187 6 332 39 105 24 297 114 419 197
143 96 349 259 484 384 25 23 59 54 75 69 60 54 219 201 245 225 56 53 269
239 343 299 82 67 101 95 93 144 -7 43 -42 74 -105 93 -75 22 -238 61 -281 68
-19 3 -44 7 -55 10 -33 6 -107 16 -160 21 -27 3 -72 8 -98 11 -71 8 -329 8
-427 -1 -360 -30 -705 -152 -944 -334 -53 -40 -216 -212 -253 -266 -79 -118
-152 -277 -169 -371 -23 -126 -25 -258 -5 -345 6 -24 11 -49 11 -54 0 -9 -24
-37 -134 -155 -23 -25 -80 -89 -125 -142 -46 -54 -84 -98 -85 -98 -1 0 -1 316
-1 703 l0 702 56 31 c74 40 146 93 186 137 209 229 327 557 327 902 -1 345
-99 765 -276 1185 -79 187 -283 548 -332 589 -7 6 -33 13 -57 17 -36 4 -49 1
-71 -18z m215 -550 c124 -258 237 -599 273 -828 3 -19 8 -43 10 -53 24 -80 37
-420 20 -528 -26 -167 -85 -326 -173 -459 -46 -69 -151 -180 -170 -180 -4 0
-8 482 -8 1070 -1 589 0 1070 1 1070 1 0 22 -42 47 -92z m-257 -983 c0 -613
-4 -1065 -9 -1065 -17 0 -128 114 -164 169 -69 104 -126 235 -161 376 -37 144
-36 417 3 630 49 268 133 542 237 775 68 152 82 180 88 180 3 0 6 -479 6
-1065z m-1691 -1160 c329 -39 580 -127 775 -271 175 -129 319 -331 365 -512
17 -68 29 -202 18 -202 -4 0 -24 15 -43 33 -89 84 -331 269 -485 371 -339 225
-648 376 -1035 507 -96 32 -170 59 -165 60 6 0 19 2 30 4 11 2 61 7 110 11 50
3 91 7 92 8 5 5 290 -3 338 -9z m4035 0 c58 -4 112 -11 120 -16 13 -7 13 -8
-1 -9 -20 0 -161 -46 -206 -67 -56 -26 -67 -109 -21 -160 32 -35 73 -36 178
-3 113 35 120 36 89 9 -25 -21 -52 -46 -235 -215 -134 -125 -257 -231 -354
-309 -41 -33 -77 -63 -80 -66 -3 -3 -56 -40 -117 -82 -175 -119 -320 -181
-495 -211 -87 -15 -259 -20 -300 -9 -27 8 -27 8 35 60 34 29 76 64 92 79 106
93 366 274 537 373 59 35 112 69 119 77 6 8 14 33 16 57 4 35 1 48 -19 71 -35
41 -83 48 -140 19 -181 -89 -466 -286 -695 -480 -67 -57 -125 -103 -128 -103
-11 0 4 136 21 204 65 252 280 493 560 626 183 88 382 138 619 156 44 4 81 7
82 8 5 4 228 -2 323 -9z m-4535 -260 c505 -166 995 -438 1390 -773 124 -106
118 -99 92 -106 -27 -7 -268 0 -317 9 -227 44 -421 149 -710 384 -103 84 -135
112 -254 221 -33 30 -65 60 -72 65 -6 6 -55 51 -110 101 -54 51 -110 101 -124
113 l-25 21 30 -6 c17 -3 62 -17 100 -29z m3815 -2257 c0 -92 -3 -168 -7 -169
-5 0 -402 -1 -883 -1 -504 -1 -886 -5 -902 -10 -71 -25 -83 -129 -21 -178 25
-20 42 -20 770 -20 704 0 744 -1 739 -17 -11 -38 -174 -646 -242 -901 -8 -28
-21 -78 -30 -110 -8 -31 -17 -66 -19 -76 -3 -11 -17 -32 -32 -48 l-27 -28
-863 0 -863 0 -29 28 c-27 25 -40 64 -141 442 -62 228 -123 458 -137 510 -13
52 -31 117 -39 144 -8 27 -14 51 -14 52 0 1 65 4 145 6 141 3 145 4 171 29 45
46 35 130 -19 161 -16 10 -93 13 -287 15 -146 1 -275 2 -287 2 -23 1 -23 2
-23 169 l0 168 1520 0 1520 0 0 -168z"/>
</g>
</svg>
